<mxfile host="app.diagrams.net" modified="2023-12-11T08:44:18.947Z" agent="Mozilla/5.0 (Windows NT 10.0; Win64; x64; rv:109.0) Gecko/20100101 Firefox/112.0" etag="i3l9i_Vap5_Ph95gHsud" version="22.1.7" type="github">
  <diagram name="第 1 页" id="3DLmhqvNEGKwdh4Kj9e7">
    <mxGraphModel dx="1195" dy="628" grid="1" gridSize="10" guides="1" tooltips="1" connect="1" arrows="1" fold="1" page="1" pageScale="1" pageWidth="1169" pageHeight="827" math="0" shadow="0">
      <root>
        <mxCell id="0" />
        <mxCell id="1" parent="0" />
        <mxCell id="q4kZ703Dppg0LJKYkS-L-1" value="" style="rounded=1;whiteSpace=wrap;html=1;dashed=1;dashPattern=1 1;shadow=1;strokeColor=#330000;fillColor=#E6FFCC;gradientColor=#e8feba;gradientDirection=south;opacity=80;" parent="1" vertex="1">
          <mxGeometry x="180" y="40" width="780" height="130" as="geometry" />
        </mxCell>
        <mxCell id="q4kZ703Dppg0LJKYkS-L-10" value="" style="rounded=1;whiteSpace=wrap;html=1;dashed=1;dashPattern=12 12;fillColor=#E6FFCC;opacity=50;" parent="1" vertex="1">
          <mxGeometry x="195" y="85" width="315" height="65" as="geometry" />
        </mxCell>
        <mxCell id="q4kZ703Dppg0LJKYkS-L-2" value="遥感影像" style="rounded=1;whiteSpace=wrap;html=1;fillColor=#f5f5f5;fontColor=#333333;strokeColor=#666666;" parent="1" vertex="1">
          <mxGeometry x="200" y="100" width="90" height="30" as="geometry" />
        </mxCell>
        <mxCell id="q4kZ703Dppg0LJKYkS-L-11" value="" style="rounded=1;whiteSpace=wrap;html=1;dashed=1;dashPattern=12 12;fillColor=#E6FFCC;opacity=50;" parent="1" vertex="1">
          <mxGeometry x="620" y="85" width="320" height="65" as="geometry" />
        </mxCell>
        <mxCell id="q4kZ703Dppg0LJKYkS-L-3" value="纹理数据" style="rounded=1;whiteSpace=wrap;html=1;fillColor=#f5f5f5;fontColor=#333333;strokeColor=#666666;" parent="1" vertex="1">
          <mxGeometry x="840" y="100" width="90" height="30" as="geometry" />
        </mxCell>
        <mxCell id="q4kZ703Dppg0LJKYkS-L-4" value="建筑物矢量数据" style="rounded=1;whiteSpace=wrap;html=1;fillColor=#f5f5f5;fontColor=#333333;strokeColor=#666666;" parent="1" vertex="1">
          <mxGeometry x="630" y="100" width="90" height="30" as="geometry" />
        </mxCell>
        <mxCell id="q4kZ703Dppg0LJKYkS-L-7" value="道路矢量数据" style="rounded=1;whiteSpace=wrap;html=1;fillColor=#f5f5f5;fontColor=#333333;strokeColor=#666666;" parent="1" vertex="1">
          <mxGeometry x="735" y="100" width="90" height="30" as="geometry" />
        </mxCell>
        <mxCell id="q4kZ703Dppg0LJKYkS-L-8" value="等高线数据" style="rounded=1;whiteSpace=wrap;html=1;fillColor=#f5f5f5;fontColor=#333333;strokeColor=#666666;" parent="1" vertex="1">
          <mxGeometry x="305" y="100" width="90" height="30" as="geometry" />
        </mxCell>
        <mxCell id="q4kZ703Dppg0LJKYkS-L-9" value="数&amp;nbsp; 据&amp;nbsp; 处&amp;nbsp; 理" style="text;html=1;strokeColor=none;fillColor=none;align=center;verticalAlign=middle;whiteSpace=wrap;rounded=0;fontSize=17;horizontal=1;" parent="1" vertex="1">
          <mxGeometry x="501.88" y="50" width="131.25" height="20" as="geometry" />
        </mxCell>
        <mxCell id="q4kZ703Dppg0LJKYkS-L-13" value="" style="rounded=1;whiteSpace=wrap;html=1;dashed=1;dashPattern=1 1;arcSize=8;shadow=1;" parent="1" vertex="1">
          <mxGeometry x="180" y="240" width="340" height="360" as="geometry" />
        </mxCell>
        <mxCell id="q4kZ703Dppg0LJKYkS-L-16" value="三维地形构建" style="text;html=1;strokeColor=none;fillColor=none;align=center;verticalAlign=middle;whiteSpace=wrap;rounded=0;fontSize=17;" parent="1" vertex="1">
          <mxGeometry x="270.63" y="260" width="120" height="20" as="geometry" />
        </mxCell>
        <mxCell id="q4kZ703Dppg0LJKYkS-L-17" value="" style="rounded=1;whiteSpace=wrap;html=1;dashed=1;dashPattern=1 1;arcSize=8;shadow=1;resizeHeight=0;" parent="1" vertex="1">
          <mxGeometry x="620" y="240" width="340" height="361" as="geometry" />
        </mxCell>
        <mxCell id="q4kZ703Dppg0LJKYkS-L-19" value="城市与路网模型构建" style="text;html=1;strokeColor=none;fillColor=none;align=center;verticalAlign=middle;whiteSpace=wrap;rounded=0;fontSize=17;" parent="1" vertex="1">
          <mxGeometry x="700" y="260" width="160" height="20" as="geometry" />
        </mxCell>
        <mxCell id="q4kZ703Dppg0LJKYkS-L-20" value="" style="html=1;shadow=1;dashed=0;align=center;verticalAlign=middle;shape=mxgraph.arrows2.triadArrow;dy=7;dx=22.03;arrowHead=22.86;rotation=-180;" parent="1" vertex="1">
          <mxGeometry x="520" y="441" width="95" height="239" as="geometry" />
        </mxCell>
        <mxCell id="q4kZ703Dppg0LJKYkS-L-22" value="" style="rounded=1;whiteSpace=wrap;html=1;dashed=1;dashPattern=1 1;shadow=1;" parent="1" vertex="1">
          <mxGeometry x="180" y="680" width="780" height="130" as="geometry" />
        </mxCell>
        <mxCell id="q4kZ703Dppg0LJKYkS-L-23" value="研究区三维可视化表达" style="text;html=1;strokeColor=none;fillColor=none;align=center;verticalAlign=middle;whiteSpace=wrap;rounded=0;fontSize=17;" parent="1" vertex="1">
          <mxGeometry x="452.5" y="690" width="185" height="20" as="geometry" />
        </mxCell>
        <mxCell id="BNwJUvH9618CSP2P_LMe-1" value="" style="shape=singleArrow;direction=south;whiteSpace=wrap;html=1;arrowWidth=0.3388888888888914;arrowSize=0.2203703703703708;shadow=1;" vertex="1" parent="1">
          <mxGeometry x="342.5" y="150" width="20" height="90" as="geometry" />
        </mxCell>
        <mxCell id="BNwJUvH9618CSP2P_LMe-2" value="" style="shape=singleArrow;direction=south;whiteSpace=wrap;html=1;arrowWidth=0.3388888888888914;arrowSize=0.2203703703703708;shadow=1;" vertex="1" parent="1">
          <mxGeometry x="770" y="150" width="20" height="90" as="geometry" />
        </mxCell>
        <mxCell id="BNwJUvH9618CSP2P_LMe-3" value="照&amp;nbsp; 片" style="rounded=1;whiteSpace=wrap;html=1;fillColor=#f5f5f5;fontColor=#333333;strokeColor=#666666;" vertex="1" parent="1">
          <mxGeometry x="410" y="100" width="90" height="30" as="geometry" />
        </mxCell>
      </root>
    </mxGraphModel>
  </diagram>
</mxfile>
